<?xml version="1.0" encoding="UTF-8" standalone="no"?>
<svg
   xmlns:dc="http://purl.org/dc/elements/1.1/"
   xmlns:cc="http://creativecommons.org/ns#"
   xmlns:rdf="http://www.w3.org/1999/02/22-rdf-syntax-ns#"
   xmlns:svg="http://www.w3.org/2000/svg"
   xmlns="http://www.w3.org/2000/svg"
   xmlns:sodipodi="http://sodipodi.sourceforge.net/DTD/sodipodi-0.dtd"
   xmlns:inkscape="http://www.inkscape.org/namespaces/inkscape"
   width="210mm"
   height="297mm"
   viewBox="0 0 210 297"
   version="1.1"
   id="svg8"
   inkscape:version="1.0.1 (c497b03c, 2020-09-10)"
   sodipodi:docname="icon-moves.svg">
  <defs
     id="defs2" />
  <sodipodi:namedview
     id="base"
     pagecolor="#ffffff"
     bordercolor="#666666"
     borderopacity="1.0"
     inkscape:pageopacity="0.0"
     inkscape:pageshadow="2"
     inkscape:zoom="0.98994949"
     inkscape:cx="502.51685"
     inkscape:cy="521.00927"
     inkscape:document-units="mm"
     inkscape:current-layer="layer2"
     inkscape:document-rotation="0"
     showgrid="false"
     inkscape:window-width="1920"
     inkscape:window-height="1080"
     inkscape:window-x="1440"
     inkscape:window-y="0"
     inkscape:window-maximized="0" />
  <metadata
     id="metadata5">
    <rdf:RDF>
      <cc:Work
         rdf:about="">
        <dc:format>image/svg+xml</dc:format>
        <dc:type
           rdf:resource="http://purl.org/dc/dcmitype/StillImage" />
        <dc:title />
      </cc:Work>
    </rdf:RDF>
  </metadata>
  <g
     inkscape:groupmode="layer"
     id="layer2"
     inkscape:label="vector">
    <path
       style="font-variation-settings:'wght' 400;fill:#961a21;fill-opacity:1;stroke:#961a21;stroke-width:2.42474;stroke-linecap:round;stroke-opacity:1"
       d="m 56.261639,176.10423 c -0.007,-5.40536 -0.279123,-6.15706 -2.694747,-7.44405 -1.477827,-0.78736 -3.38355,-1.43349 -4.234942,-1.43585 -2.430358,-0.006 -12.277961,-5.99662 -14.998876,-9.12313 -2.91227,-3.34641 -6.01574,-9.98811 -6.01574,-12.8742 0,-1.61222 0.816685,-2.04833 3.835954,-2.04833 3.370891,0 4.066811,0.49279 5.740155,4.06477 2.238242,4.77777 8.455931,9.29627 14.25639,10.36034 l 4.119592,0.7557 v -17.22426 -17.22424 l -4.242728,-0.80278 c -2.3335,-0.44151 -4.691962,-1.19677 -5.241018,-1.67834 -0.549065,-0.48158 -2.12137,-1.26516 -3.494018,-1.7413 -3.807195,-1.32058 -9.84949,-7.23437 -12.718287,-12.44782 -3.102292,-5.63775 -3.581045,-16.531812 -0.863508,-19.649362 0.881287,-1.011 1.602327,-2.38648 1.602327,-3.05661 0,-2.95759 9.389774,-10.648371 15.078472,-12.350197 9.3369,-2.793218 9.87876,-3.343076 9.87876,-10.024692 v -6.019238 h 3.993157 3.993155 v 6.019238 c 0,6.707227 0.34911,7.049352 10.23246,10.027913 2.60803,0.785989 4.74188,1.87745 4.74188,2.425472 0,0.54802 0.6461,0.996398 1.43581,0.996398 1.76301,0 7.1191,5.497236 9.65456,9.909016 1.03083,1.79366 1.87718,4.67844 1.88079,6.4106 0.005,2.91207 -0.29433,3.1494 -3.98656,3.1494 -2.62224,0 -3.99316,-0.51396 -3.99316,-1.49706 0,-2.13843 -5.0235,-8.81007 -6.63366,-8.81007 -0.74396,0 -1.35265,-0.45417 -1.35265,-1.00926 0,-1.00788 -7.48321,-3.57168 -10.42495,-3.57168 -1.33792,0 -1.55452,2.38813 -1.55452,17.13912 v 17.139132 l 4.99145,0.7596 c 2.74529,0.41779 4.99144,1.127 4.99144,1.57603 0,0.44902 1.71687,1.40652 3.81527,2.12775 5.82849,2.00332 12.77787,10.49852 13.99957,17.11365 1.10095,5.96132 0.20522,13.94795 -1.9215,17.13267 -2.89925,4.34159 -6.46158,8.26174 -7.53523,8.29208 -0.61908,0.0181 -1.63839,0.74062 -2.26511,1.60692 -0.62672,0.86631 -3.2648,2.21546 -5.86239,2.99809 -9.86169,2.97124 -10.2135,3.31646 -10.2135,10.02183 v 6.01925 h -3.993155 -3.993157 l -0.0079,-6.0125 z m 15.538348,-19.31868 c 2.43937,-0.70465 4.43522,-1.73538 4.43522,-2.29047 0,-0.5551 0.59284,-1.00928 1.31741,-1.00928 3.62121,0 7.55587,-9.53277 6.30139,-15.26676 -0.78356,-3.58144 -6.382,-9.82668 -9.59461,-10.70305 -1.38408,-0.37755 -3.0533,-1.17032 -3.7094,-1.7617 -0.65611,-0.59138 -2.22842,-0.90683 -3.49402,-0.70101 -2.26452,0.36827 -2.3055,0.63368 -2.57808,16.69385 -0.31038,18.28782 -0.75628,17.37201 7.32209,15.03842 z M 56.269425,96.650178 v -16.75231 l -4.149843,0.76125 c -7.870212,1.44376 -15.815935,9.21145 -15.815935,15.46158 0,5.439902 5.926153,13.462062 10.731606,14.527142 1.784434,0.3955 3.244435,1.17711 3.244435,1.73688 0,0.55978 1.347693,1.01778 2.994869,1.01778 h 2.994868 z"
       id="path848" />
    <path
       style="font-variation-settings:'wght' 400;fill:#961a21;fill-opacity:1;stroke:#961a21;stroke-width:2.42474;stroke-linecap:round;stroke-opacity:1"
       d="m 136.3547,116.91689 c -1.68488,-1.9329 -3.29277,-3.51439 -3.57306,-3.51439 -0.2803,0 -4.83063,-4.98127 -10.11182,-11.0695 l -9.60221,-11.069482 5.29317,-6.22732 c 11.80172,-13.884531 13.96508,-16.297962 14.60938,-16.297962 0.37023,0 1.97341,-1.580404 3.56259,-3.512012 2.59478,-3.153835 3.04539,-3.333146 4.41829,-1.758162 1.3729,1.574997 0.59427,2.823932 -7.63458,12.246118 -5.03986,5.770728 -9.16338,10.887298 -9.16338,11.370138 0,1.93544 4.18568,2.26818 28.53288,2.26818 24.7092,0 25.37472,0.06 25.37472,2.29048 0,2.23285 -0.66552,2.29048 -26.45465,2.29048 -21.9175,0 -26.45467,0.27297 -26.45467,1.59165 0,0.8754 3.87383,6.075892 8.6085,11.556652 7.59407,8.79076 8.43465,10.16441 7.13336,11.65724 -1.30127,1.49284 -1.83608,1.27812 -4.53852,-1.82211 z"
       id="path852" />
    <path
       style="font-variation-settings:'wght' 400;fill:#961a21;fill-opacity:1;stroke:#961a21;stroke-width:2.42474;stroke-linecap:round;stroke-opacity:1"
       d="m 151.29099,184.1603 c -0.95245,-1.09266 0.75281,-3.65728 7.92769,-11.92266 11.07012,-12.75267 11.31265,-14.79282 1.61888,-13.61855 -3.43017,0.41553 -14.88435,0.99771 -25.45373,1.29373 l -19.21706,0.53824 v -3.48264 -3.48262 h 25.95551 c 17.14106,0 25.95551,-0.40056 25.95551,-1.17952 0,-0.64873 -4.13503,-5.80723 -9.18894,-11.46334 -8.13007,-9.09877 -9.01799,-10.47995 -7.70529,-11.98589 1.31268,-1.50592 2.17027,-0.96746 7.44195,4.67267 11.60899,12.42041 19.50329,21.33834 19.71741,22.27414 0.23999,1.04888 -24.00675,29.74857 -25.13286,29.74857 -0.38807,0 -1.25165,-0.62647 -1.91907,-1.39213 z"
       id="path854" />
  </g>
</svg>
