<svg width="143" height="200" viewBox="0 0 143 143" fill="none" xmlns="http://www.w3.org/2000/svg">
<path d="M0.774703 141.453C0.26308 140.494 0 123.135 0 90.3343V40.6677L1.68384 39.1653C2.60995 38.339 8.41917 34.884 14.5932 31.4875C20.7673 28.091 34.9115 20.2756 46.0248 14.1199C57.1381 7.96423 67.4202 2.26901 68.8738 1.46388L71.5168 0L93.5701 12.9878C105.699 20.1311 121.348 29.3451 128.346 33.4634C135.343 37.5817 141.489 41.4844 142.003 42.1362C143.223 43.6811 143.378 139.178 142.164 141.453C141.487 142.723 140.548 142.906 134.707 142.906C128.866 142.906 127.927 142.723 127.249 141.453C126.75 140.517 126.475 128.635 126.475 108.038V76.0743H71.4694H16.4642V108.038C16.4642 128.635 16.1887 140.517 15.6895 141.453C15.0123 142.723 14.0731 142.906 8.23208 142.906C2.39104 142.906 1.45184 142.723 0.774703 141.453ZM11.9739 96.8747C11.9739 64.9942 12.1948 54.3766 12.872 53.6971C14.1722 52.3925 128.767 52.3925 130.067 53.6971C130.744 54.3766 130.965 64.9942 130.965 96.8747V139.151H134.712H138.46L138.267 91.3415L138.074 43.5318L132.088 40.0172C128.795 38.0841 114.251 29.5221 99.7684 20.9904C85.2858 12.4587 72.9203 5.27954 72.2897 5.03672C71.2896 4.65163 62.4008 9.40665 9.72882 38.5034L4.86441 41.1905L4.6719 90.1708L4.47939 139.151H8.22666H11.9739V96.8747ZM126.475 68.9407V66.3125H71.4694H16.4642V68.9407V71.5689H71.4694H126.475V68.9407ZM126.475 59.5542V56.5506H71.4694H16.4642V59.5542V62.5579H71.4694H126.475V59.5542Z" fill="#961A21"/>
<path d="M57.9451 45.793C57.7283 45.2262 57.6517 42.4306 57.7748 39.5806L57.9987 34.3987H71.4694H84.9401V40.406V46.4133L71.6396 46.6184C60.9164 46.7838 58.2628 46.6239 57.9451 45.793ZM81.5724 40.406V37.7778H71.4694H61.3664V40.406V43.0342H71.4694H81.5724V40.406Z" fill="#961A21"/>
<path d="M60.6935 141.871C60.0984 141.151 59.8994 136.286 60.0406 125.914L60.2438 110.992L74.2758 110.788L88.3078 110.583V97.1371C88.3078 85.9144 88.5022 83.4957 89.4838 82.5108C90.4681 81.5232 92.9158 81.3308 104.5 81.3308C112.61 81.3308 118.94 81.6527 119.789 82.1081C121.181 82.8561 121.236 83.9838 121.236 111.995C121.236 133.634 121.006 141.335 120.338 142.005C118.932 143.415 61.8649 143.287 60.6935 141.871ZM88.3078 126.761V114.371H85.7258H83.1438L82.9194 118.689L82.695 123.007H76.3338H69.9727L69.7482 118.689L69.5238 114.371H66.5676H63.6115V126.761V139.151H75.9596H88.3078V126.761ZM117.326 126.573L117.531 114.371H114.557H111.582L111.358 118.689L111.133 123.007H104.772H98.4108L98.1863 118.689L97.9619 114.371H95.3799H92.798V126.78V139.188L104.959 138.982L117.12 138.776L117.326 126.573ZM79.3273 116.999C79.3273 114.434 79.256 114.371 76.3338 114.371C73.4116 114.371 73.3403 114.434 73.3403 116.999C73.3403 119.565 73.4116 119.627 76.3338 119.627C79.256 119.627 79.3273 119.565 79.3273 116.999ZM107.765 116.999C107.765 114.434 107.694 114.371 104.772 114.371C101.85 114.371 101.778 114.434 101.778 116.999C101.778 119.565 101.85 119.627 104.772 119.627C107.694 119.627 107.765 119.565 107.765 116.999ZM117.326 98.0386L117.531 85.8363H114.557H111.582L111.358 90.154L111.133 94.4718H104.772H98.4108L98.1863 90.154L97.9619 85.8363H95.0057H92.0496V97.7258C92.0496 104.265 92.2822 109.849 92.5664 110.134C92.8506 110.419 98.4914 110.56 105.102 110.447L117.12 110.241L117.326 98.0386ZM107.765 88.4645C107.765 85.8989 107.694 85.8363 104.772 85.8363C101.85 85.8363 101.778 85.8989 101.778 88.4645C101.778 91.0301 101.85 91.0927 104.772 91.0927C107.694 91.0927 107.765 91.0301 107.765 88.4645Z" fill="#961A21"/>
</svg>
