<svg width="71" height="71" viewBox="0 0 71 71" fill="none" xmlns="http://www.w3.org/2000/svg">
<path d="M35.5 46.15C28.968 46.15 28.4 43.097 28.4 42.6H21.3C21.3 45.866 23.643 51.6525 31.95 52.966V56.8H39.05V52.966C46.1501 51.759 49.7001 47.1795 49.7001 42.6C49.7001 38.624 47.854 31.95 35.5 31.95C28.4 31.95 28.4 29.7135 28.4 28.4C28.4 27.0865 30.885 24.85 35.5 24.85C40.115 24.85 40.4345 27.122 40.47 28.4H47.57C47.5221 25.9816 46.6522 23.6515 45.1037 21.7933C43.5552 19.935 41.4202 18.6593 39.05 18.176V14.2H31.95V18.0695C24.85 19.241 21.3 23.8205 21.3 28.4C21.3 32.376 23.146 39.05 35.5 39.05C42.6 39.05 42.6 41.464 42.6 42.6C42.6 43.736 40.399 46.15 35.5 46.15Z" fill="#961A21"/>
<path d="M10.65 0H0V7.1H7.1V67.45C7.1 68.3915 7.47402 69.2945 8.13977 69.9602C8.80553 70.626 9.70848 71 10.65 71H60.35C61.2915 71 62.1945 70.626 62.8602 69.9602C63.526 69.2945 63.9 68.3915 63.9 67.45V7.1H71V0H10.65ZM56.8 63.9H14.2V7.1H56.8V63.9Z" fill="#961A21"/>
</svg>