<svg width="142" height="200" viewBox="0 0 142 140" fill="none" xmlns="http://www.w3.org/2000/svg">
<path d="M14.1719 56.5358L12.1835 54.7583V44.9709C12.1835 33.7732 12.4651 32.8392 17.1789 28.4031C19.5249 26.1953 19.8182 25.671 19.1903 24.8069C17.4461 22.4061 16.4951 19.3569 16.4447 16.0033C16.2349 2.04857 32.8752 -5.1714 42.9663 4.49606C46.3627 7.7499 47.5311 10.6087 47.5469 15.7037C47.5586 19.5132 47.3096 20.6441 45.9145 23.1168L44.2682 26.0346L46.8139 28.3367C48.214 29.6029 49.4945 30.6385 49.6594 30.6379C49.8243 30.6373 51.1406 29.5998 52.5846 28.3322L55.2099 26.0275L53.534 22.6033C48.3898 12.0931 55.9079 -0.01598 67.5429 0.0396478C80.1502 0.0999222 87.6343 14.0258 80.6057 24.346L79.4142 26.0956L80.8751 27.0432C81.6786 27.5644 82.9072 28.5977 83.6052 29.3395C85.215 31.05 85.4174 31.0339 87.3627 29.0398C88.247 28.1332 89.502 27.0886 90.1516 26.7185C91.3014 26.0632 91.3034 26.0128 90.2263 24.8102C87.6167 21.8965 86.6588 14.7273 88.2746 10.2046C90.3948 4.27058 96.5671 0 103.024 0C111.889 0 118.615 6.91472 118.615 16.029C118.615 19.1524 116.961 24.1635 115.667 24.9633C114.571 25.6404 114.925 26.2723 117.274 27.826C118.584 28.6927 120.274 30.6744 121.303 32.5508C122.972 35.5941 123.089 36.2559 123.308 43.8895C123.489 50.2057 123.339 52.479 122.627 54.1821C120.908 58.2939 120.739 58.3262 102.352 58.0588C93.3231 57.9275 85.5988 57.8244 85.1865 57.8298C83.7737 57.8481 50.8594 57.8395 50.1091 57.8206C49.6969 57.8102 41.8897 57.9168 32.7599 58.0575L16.1602 58.3132L14.1719 56.5358ZM47.26 45.2229C47.259 35.8404 46.6391 33.799 43.0637 31.404C40.8744 29.9375 39.781 29.9146 34.9689 31.2343C33.0594 31.758 31.6648 31.6855 28.1284 30.8786C23.7833 29.8871 23.6395 29.892 21.5327 31.1006C20.3481 31.7801 18.7762 33.3813 18.0396 34.6588C16.8421 36.7357 16.6993 37.8115 16.6905 44.8234C16.6851 49.1364 16.8605 52.845 17.0804 53.0648C17.3002 53.2846 24.1808 53.4644 32.3705 53.4644H47.261L47.26 45.2229ZM82.8738 52.5163C83.4931 50.9031 83.2746 39.7563 82.5688 36.9543C81.8296 34.0198 78.1084 30.0887 76.07 30.0887C75.4274 30.0887 73.337 30.5025 71.4247 31.0083C68.2467 31.8489 67.5685 31.8399 63.54 30.9046C59.316 29.9238 59.0468 29.9272 57.08 30.986C53.2654 33.0395 52.3856 35.3667 52.1473 44.0338C52.0316 48.2422 52.0906 52.0857 52.2784 52.5749C52.5676 53.3283 54.9053 53.4644 67.5649 53.4644C80.6396 53.4644 82.5554 53.3457 82.8738 52.5163ZM118.015 44.9139C118.015 35.1698 117.412 33.2291 113.717 31.0869C111.626 29.875 111.507 29.8714 107.281 30.891C103.26 31.861 102.715 31.8651 99.0723 30.9519C96.9263 30.4139 94.5712 30.1241 93.8387 30.3078C91.7972 30.82 88.7277 34.1519 88.0498 36.5917C87.3926 38.9568 87.2035 50.9649 87.7991 52.5163C88.1174 53.3457 90.0316 53.4644 103.089 53.4644H118.015V44.9139ZM36.9474 25.6503C40.4016 23.8538 43.0764 19.4373 43.0505 15.5731C43.0308 12.6304 41.077 8.88614 38.5598 6.96695C35.4231 4.57541 30.0315 4.25166 26.592 6.24831C19.0685 10.6157 19.3079 21.7033 27.0076 25.4969C29.4395 26.6951 34.78 26.7775 36.9474 25.6503ZM72.3246 25.6469C74.168 24.6842 76.7733 22.024 77.768 20.0886C78.1381 19.3685 78.4409 17.3953 78.4409 15.7037C78.4409 12.3018 77.8631 10.839 75.5195 8.30779C73.2158 5.81971 71.0986 4.91488 67.5804 4.91488C61.275 4.91488 56.8548 9.3611 56.8548 15.7037C56.8548 22.0442 61.2408 26.4755 67.5277 26.4868C69.2755 26.4899 71.4341 26.1119 72.3246 25.6469ZM108.874 24.9365C115.481 21.066 115.481 10.3414 108.874 6.47088C101.301 2.03487 92.232 7.05071 92.232 15.6747C92.232 24.3382 101.29 29.3792 108.874 24.9365Z" fill="#961A21"/>
<path d="M30.6024 136.673C26.8336 133.151 23.9562 130.409 6.60154 113.803C1.89322 109.298 -0.12299 106.968 0.00578342 106.181C0.284161 104.479 20.1473 84.0326 21.5224 84.0326C22.1554 84.0326 23.7369 84.9931 25.0369 86.167L27.4004 88.3015L32.1021 83.6197C35.587 80.1495 38.0267 78.3314 41.529 76.5944C45.7996 74.4763 46.8074 74.2245 52.0042 73.9769C56.3777 73.7685 59.2172 74.0067 63.8657 74.9718C69.0694 76.0522 72.0529 76.2412 83.9527 76.244C92.3216 76.2459 98.8877 76.5136 100.32 76.911C101.651 77.2803 103.57 78.4853 104.649 79.6279L106.586 81.6813L115.449 72.965C120.323 68.1711 125.162 63.8452 126.201 63.3519C132.852 60.1948 142 65.579 142 72.6507C142 76.2846 141.714 76.6928 127.416 93.4554C114.001 109.183 113.89 109.295 109.913 111.119C106.993 112.458 106.328 112.499 81.7388 112.848C67.8877 113.044 56.0828 113.413 55.5057 113.667C54.1517 114.264 54.1827 114.767 55.6556 116.099C56.3151 116.696 56.8548 117.5 56.8548 117.886C56.8548 118.723 37.4296 138.939 35.7761 139.824C34.8109 140.34 33.9967 139.844 30.6024 136.673ZM43.0145 126.143C46.999 121.943 50.259 118.231 50.259 117.894C50.259 117.123 22.3819 90.0263 21.5887 90.0263C21.2673 90.0263 17.5545 93.6837 13.3379 98.1538L5.67153 106.281L9.22734 109.8C18.5896 119.064 34.445 133.776 35.0696 133.778C35.4548 133.779 39.03 130.344 43.0145 126.143ZM54.7561 108.791C55.4157 108.604 67.2881 108.284 81.1392 108.079L106.323 107.708L108.988 106.209C112.902 104.009 137.203 75.4664 137.203 73.0698C137.203 69.5707 134.442 67.25 130.278 67.25C128.267 67.25 127.329 67.9892 118.705 76.3733C113.544 81.3912 109.01 85.9168 108.63 86.4303C108.25 86.9438 107.615 88.5699 107.219 90.0438C106.344 93.2967 102.702 97.0056 99.8812 97.5169C98.8072 97.7116 93.1006 97.7916 87.2 97.6947C77.7515 97.5395 76.3927 97.3934 75.8104 96.4696C75.3288 95.7057 75.3286 95.1357 75.8097 94.3718C76.3907 93.4492 77.8781 93.2868 88.1586 93.0232C100.93 92.6957 101.279 92.5993 102.441 89.0793C103.288 86.5139 102.326 83.1655 100.429 82.08C99.5246 81.5626 94.0045 81.2224 82.3384 80.9651C68.8206 80.667 64.8481 80.3877 61.9515 79.5322C56.9183 78.0457 50.2771 78.1606 45.9269 79.8094C41.5052 81.4854 35.9972 85.5529 33.1728 89.2281L30.9472 92.1241L40.1205 100.908C48.9415 109.355 49.3758 109.682 51.4254 109.412C52.5977 109.258 54.0966 108.978 54.7561 108.791Z" fill="#961A21"/>
</svg>
