<svg width="138" height="200" viewBox="0 0 138 120" fill="none" xmlns="http://www.w3.org/2000/svg">
<path d="M1.35674 119.141C0.157458 118.439 0 116.953 0 106.337C0 93.0242 0.122573 92.7136 5.376 92.7136C7.12215 92.7136 7.75324 92.3518 7.75444 91.3501C7.75526 90.6003 8.79864 78.2417 10.0729 63.8867C11.3471 49.5316 12.393 37.1981 12.3971 36.4788C12.4135 33.5747 14.5384 32.7224 21.7632 32.7224H28.6854V26.1638C28.6854 22.5565 28.8972 19.0505 29.156 18.3727C29.7459 16.8278 31.5832 16.8089 35.1602 18.3109C37.6771 19.3677 38.2639 19.3544 41.199 18.1742C44.2321 16.9546 44.6926 16.9536 48.0709 18.1594C51.4138 19.3525 51.9362 19.3553 54.8743 18.1955C60.0149 16.1662 60.4719 16.746 60.4719 25.2965V32.7224H74.427H88.382V29.9956V27.2687H84.1734C77.7256 27.2687 77.5281 26.8634 77.5281 13.6343C77.5281 4.50431 77.752 2.22362 78.7464 1.22431C79.7747 0.190952 82.4428 0 95.8535 0C105.324 0 112.348 0.325823 113.242 0.806519C114.625 1.5504 114.742 2.54661 114.742 13.6343C114.742 27.4057 114.811 27.2687 107.815 27.2687H103.888V29.9956V32.7224H113.43C119.844 32.7224 123.408 33.042 124.299 33.6968C125.417 34.5183 125.985 38.7672 127.917 60.7707C130.81 93.712 130.648 92.7136 133.08 92.7136C134.136 92.7136 135.676 93.0765 136.5 93.5201C137.884 94.264 138 95.2602 138 106.348C138 117.436 137.884 118.432 136.5 119.176C134.457 120.275 82.6217 120.275 80.5782 119.176C78.6577 118.143 78.6577 116.368 80.5782 115.335C81.5252 114.826 91.5247 114.529 107.713 114.529H133.348V106.348V98.1673H69H4.65169V106.348V114.529H30.2869C46.4753 114.529 56.4748 114.826 57.4218 115.335C59.3423 116.368 59.3423 118.143 57.4218 119.176C55.3991 120.264 3.21939 120.231 1.35674 119.141ZM125.996 89.0128C125.399 83.8545 121.719 41.3335 121.719 39.5968C121.719 38.246 120.214 38.1762 91.0955 38.1762H60.4719V48.9863V59.7964L62.8161 60.2675C65.7247 60.8521 66.6859 62.9397 64.7137 64.3889C62.4707 66.0371 26.1629 65.915 24.5097 64.2537C22.8844 62.6204 23.777 60.7829 26.4574 60.2441L28.6854 59.7964V48.9863V38.1762H22.9389H17.1925L16.7222 41.0978C16.0758 45.1145 12.4045 86.7257 12.4045 90.0364V92.7136H69.4143H126.424L125.996 89.0128ZM55.8202 41.2926C55.8202 31.0084 55.6228 22.5941 55.3816 22.5941C55.1404 22.5941 54.2659 22.9583 53.4382 23.4034C52.3271 24.001 50.9547 23.8633 48.1917 22.8772C44.6928 21.6283 44.2413 21.6255 41.2359 22.834C38.8475 23.7944 37.5067 23.9295 36.0166 23.3602C34.9138 22.9388 33.8597 22.5941 33.6742 22.5941C33.4888 22.5941 33.3371 31.0084 33.3371 41.2926V59.9911H44.5787H55.8202V41.2926ZM99.236 29.9956C99.236 27.3336 99.1621 27.2687 96.1348 27.2687C93.1075 27.2687 93.0337 27.3336 93.0337 29.9956C93.0337 32.6575 93.1075 32.7224 96.1348 32.7224C99.1621 32.7224 99.236 32.6575 99.236 29.9956ZM110.09 13.6344V5.45375H96.1348H82.1798V13.6344V21.815H96.1348H110.09V13.6344Z" fill="#961A21"/>
<path d="M67.4399 107.895C66.5773 106.937 66.631 105.659 67.5737 104.712C68.5607 103.72 69.6877 103.72 70.6748 104.712C71.6039 105.646 71.6801 107.152 70.8409 107.995C70.0184 108.822 68.227 108.769 67.4399 107.895Z" fill="#961A21"/>
<path d="M67.4399 118.802C66.5773 117.845 66.631 116.567 67.5737 115.619C68.5607 114.627 69.6877 114.627 70.6748 115.619C71.6039 116.553 71.6801 118.059 70.8409 118.903C70.0184 119.729 68.227 119.676 67.4399 118.802Z" fill="#961A21"/>
<path d="M74.1636 65.0907C72.2477 64.3827 72.2254 64.2621 72.2254 54.594C72.2254 46.0193 72.2697 45.4554 73.0007 44.7208C73.7554 43.9623 74.2928 43.9417 93.3201 43.9417C104.069 43.9417 113.147 44.0505 113.492 44.1836C114.985 44.7594 115.253 46.3148 115.253 54.3821C115.253 63.0947 115.018 64.3225 113.229 64.9492C111.994 65.3821 75.3117 65.5149 74.1636 65.0907ZM110.214 54.6543V49.0058H93.7394H77.2647V54.6543V60.3029H93.7394H110.214V54.6543Z" fill="#961A21"/>
<path d="M22.9096 73.528H115.556H22.9096Z" fill="#961A21"/>
<path d="M22.9096 73.528H115.556" stroke="#961A21" stroke-width="4" stroke-linecap="round" stroke-dasharray="18.39 36.77"/>
<path d="M23.2197 84.4357H115.866H23.2197Z" fill="#961A21"/>
<path d="M23.2197 84.4357H115.866" stroke="#961A21" stroke-width="4" stroke-linecap="round" stroke-dasharray="18.39 36.77"/>
</svg>
