<svg width="101" height="54" viewBox="0 0 101 54" fill="none" xmlns="http://www.w3.org/2000/svg">
<path d="M52.2 3H5.8C2.6013 3 0 5.57887 0 8.75V43.25C0 46.4211 2.6013 49 5.8 49H52.2C55.3987 49 58 46.4211 58 43.25V8.75C58 5.57887 55.3987 3 52.2 3ZM5.8 8.75H52.2V14.5H5.8V8.75ZM5.8 43.25V26H52.2029L52.2058 43.25H5.8Z" fill="#961A21"/>
<path d="M8.69995 28.875H26.1V34.625H8.69995V28.875Z" fill="#961A21"/>
<path d="M99 11.7483H73.6523L82.8505 2.47684L80.3933 0L67 13.5L80.3933 27L82.8505 24.5232L73.6523 15.2517H99V11.7483Z" fill="#961A21"/>
<path d="M68.2257 41.7234L93.5706 41.3484L84.5105 50.755L87.0042 53.1952L100.196 39.4985L86.6047 26.1981L84.1844 28.7111L93.5187 37.8455L68.1739 38.2205L68.2257 41.7234Z" fill="#961A21"/>
</svg>
