<?xml version="1.0" encoding="UTF-8" standalone="no"?>
<svg
   xmlns:dc="http://purl.org/dc/elements/1.1/"
   xmlns:cc="http://creativecommons.org/ns#"
   xmlns:rdf="http://www.w3.org/1999/02/22-rdf-syntax-ns#"
   xmlns:svg="http://www.w3.org/2000/svg"
   xmlns="http://www.w3.org/2000/svg"
   xmlns:sodipodi="http://sodipodi.sourceforge.net/DTD/sodipodi-0.dtd"
   xmlns:inkscape="http://www.inkscape.org/namespaces/inkscape"
   width="210mm"
   height="297mm"
   viewBox="0 0 210 297"
   version="1.1"
   id="svg8"
   inkscape:version="1.0.1 (c497b03c, 2020-09-10)"
   sodipodi:docname="icon-boxCut.svg">
  <defs
     id="defs2" />
  <sodipodi:namedview
     id="base"
     pagecolor="#ffffff"
     bordercolor="#961A21"
     borderopacity="1.0"
     inkscape:pageopacity="0.0"
     inkscape:pageshadow="2"
     inkscape:zoom="0.35"
     inkscape:cx="400"
     inkscape:cy="560"
     inkscape:document-units="mm"
     inkscape:current-layer="layer2"
     inkscape:document-rotation="0"
     showgrid="false"
     inkscape:window-width="1920"
     inkscape:window-height="1027"
     inkscape:window-x="1440"
     inkscape:window-y="25"
     inkscape:window-maximized="0" />
  <metadata
     id="metadata5">
    <rdf:RDF>
      <cc:Work
         rdf:about="">
        <dc:format>image/svg+xml</dc:format>
        <dc:type
           rdf:resource="http://purl.org/dc/dcmitype/StillImage" />
        <dc:title />
      </cc:Work>
    </rdf:RDF>
  </metadata>
  <g
     inkscape:groupmode="layer"
     id="layer2"
     inkscape:label="vector">
    <path
       style="fill:#961a21;stroke-width:23.6416;stroke-linecap:round;stroke-dasharray:23.6416, 47.2833"
       d="m 42.884324,246.33153 c -0.467237,-0.47567 -0.849521,-48.65707 -0.849521,-107.06973 0,-120.324361 -0.694608,-113.121223 9.816279,-101.795463 3.088406,3.327834 5.941523,6.05061 6.340265,6.05061 0.398736,0 2.996354,-2.627074 5.772485,-5.837946 2.77613,-3.21087 5.785884,-5.837949 6.688344,-5.837949 0.902457,0 4.019384,2.627079 6.926505,5.837949 2.907114,3.210872 5.631634,5.837946 6.054486,5.837946 0.422847,0 3.040196,-2.627074 5.816329,-5.837946 2.776134,-3.21087 5.810183,-5.837949 6.742335,-5.837949 0.932152,0 3.966219,2.627079 6.742359,5.837949 2.77612,3.210872 5.57055,5.837946 6.20986,5.837946 0.6393,0 3.31933,-2.627074 5.95562,-5.837946 2.63629,-3.21087 5.57612,-5.837949 6.53296,-5.837949 0.95683,0 4.01108,2.627079 6.78721,5.837949 2.77612,3.210872 5.47635,5.837946 6.00049,5.837946 0.52414,0 3.22436,-2.627074 6.00049,-5.837946 2.77613,-3.21087 5.81018,-5.837949 6.74234,-5.837949 0.93216,0 3.96622,2.627079 6.74234,5.837949 2.77613,3.210872 5.45552,5.837946 5.95419,5.837946 0.49867,0 3.33413,-2.729679 6.30101,-6.065949 3.8122,-4.286836 6.0219,-5.820768 7.53408,-5.23 1.97941,0.773309 2.13975,8.812781 2.13975,107.297732 0,98.48496 -0.16034,106.52443 -2.13975,107.29774 -1.51218,0.59078 -3.72188,-0.94316 -7.53408,-5.22999 -2.96688,-3.33627 -5.71947,-6.06595 -6.11685,-6.06595 -0.39739,0 -3.10107,2.62707 -6.00818,5.83795 -2.90712,3.21086 -6.02405,5.83795 -6.9265,5.83795 -0.90246,0 -3.91222,-2.62709 -6.68835,-5.83795 -2.77613,-3.21088 -5.47635,-5.83795 -6.00049,-5.83795 -0.52414,0 -3.22437,2.62707 -6.00049,5.83795 -2.77613,3.21086 -5.83038,5.83795 -6.78721,5.83795 -0.95684,0 -3.89667,-2.62709 -6.53296,-5.83795 -2.63629,-3.21088 -5.31632,-5.83795 -5.95562,-5.83795 -0.63931,0 -3.43374,2.62707 -6.20986,5.83795 -2.77614,3.21086 -5.830392,5.83795 -6.787236,5.83795 -0.956832,0 -3.89667,-2.62709 -6.532962,-5.83795 -2.636293,-3.21088 -5.233442,-5.83795 -5.771451,-5.83795 -0.538004,0 -3.356746,2.62707 -6.26386,5.83795 -2.907121,3.21086 -6.024048,5.83795 -6.926505,5.83795 -0.90246,0 -3.912214,-2.62709 -6.688344,-5.83795 -2.776131,-3.21088 -5.393476,-5.83795 -5.816328,-5.83795 -0.422851,0 -3.14737,2.62707 -6.054486,5.83795 -5.070304,5.60007 -7.371922,6.84304 -9.208694,4.97305 z m 34.42718,-15.35163 c 2.833989,-3.21088 5.765965,-5.83795 6.515502,-5.83795 0.749532,0 3.477261,2.62707 6.061596,5.83795 2.584348,3.21087 5.460693,5.83795 6.391879,5.83795 0.931198,0 3.244836,-2.07124 5.141429,-4.60275 6.111,-8.15679 7.92931,-8.34362 13.90601,-1.42875 2.86726,3.31732 5.79572,6.0315 6.50771,6.0315 0.71197,0 3.61322,-2.62708 6.44721,-5.83795 2.83399,-3.21088 5.76596,-5.83795 6.5155,-5.83795 0.74953,0 3.47726,2.62707 6.06159,5.83795 2.58435,3.21087 5.4208,5.83795 6.30323,5.83795 0.88243,0 3.71888,-2.62708 6.30323,-5.83795 5.38558,-6.69122 7.17134,-7.12538 10.67193,-2.59464 1.37823,1.78381 3.14014,3.2433 3.91534,3.2433 1.79305,0 2.02424,-183.67969 0.23262,-184.806999 -0.64727,-0.407264 -2.4066,1.017771 -3.90964,3.16674 -1.50301,2.148969 -3.51547,3.907217 -4.47211,3.907217 -0.95663,0 -3.8538,-2.627074 -6.43814,-5.837945 -2.58435,-3.210872 -5.38664,-5.837946 -6.22733,-5.837946 -0.84069,0 -3.85527,2.636174 -6.69908,5.858166 -5.92981,6.71839 -7.20151,6.645322 -13.03831,-0.7491 -2.21806,-2.809989 -4.83678,-5.109066 -5.81937,-5.109066 -0.98259,0 -3.33828,2.071233 -5.23486,4.602741 -5.95634,7.950345 -7.58261,8.10977 -13.56662,1.329982 -2.87999,-3.262999 -5.89005,-5.932723 -6.688989,-5.932723 -0.798939,0 -3.779374,2.636174 -6.623181,5.858166 -5.929805,6.71839 -7.20151,6.645322 -13.038304,-0.7491 -2.218065,-2.809989 -4.796889,-5.109066 -5.730723,-5.109066 -0.933828,0 -3.812332,2.627074 -6.396678,5.837946 -5.364378,6.664875 -7.428066,7.180744 -10.379633,2.594645 -1.148047,-1.783821 -2.881547,-3.243305 -3.852224,-3.243305 -1.487067,0 -1.764871,14.498784 -1.764871,92.109817 0,77.61105 0.277804,92.10983 1.764871,92.10983 0.970677,0 2.704177,-1.45949 3.852224,-3.2433 2.951567,-4.5861 5.015255,-4.07024 10.379633,2.59464 2.584346,3.21087 5.386643,5.83795 6.227333,5.83795 0.840685,0 3.847242,-2.62708 6.681226,-5.83795 z"
       id="path848" />
    <path
       style="fill:#961a21;stroke-width:23.6416;stroke-linecap:round;stroke-dasharray:23.6416, 47.2833"
       d="m 107.34182,133.38156 c -0.87607,-0.31111 -1.59286,-1.85062 -1.59286,-3.42113 0,-1.76833 -1.39257,-3.69297 -3.65767,-5.0552 -6.21375,-3.7369 -8.69323,-13.99294 -3.623229,-14.98698 1.562489,-0.30635 2.673149,0.8041 3.646019,3.64537 2.27758,6.65159 9.69952,8.03503 12.68083,2.3637 2.00171,-3.80783 -1.47265,-8.32331 -7.2538,-9.42747 -7.0766,-1.35158 -11.986422,-6.998443 -11.986422,-13.785766 0,-4.69405 0.720621,-6.187857 4.970722,-10.303958 2.73389,-2.647704 5.1788,-5.914129 5.43315,-7.258724 0.75574,-3.99521 5.44993,-3.105991 5.92789,1.122912 0.22176,1.962197 1.17429,3.567636 2.11672,3.567636 3.27547,0 8.47412,7.856565 8.06037,12.181389 -0.53541,5.596419 -4.21853,5.333473 -7.08046,-0.505497 -2.91565,-5.948567 -8.08593,-6.882038 -11.21231,-2.02431 -1.98386,3.082478 -1.98748,3.555136 -0.0505,6.564937 1.27858,1.986636 3.28708,3.243293 5.18373,3.243293 10.22965,0 16.45042,11.009298 11.60784,20.543118 -0.99149,1.952 -3.2852,4.35684 -5.09713,5.34408 -2.02702,1.10444 -3.29442,2.90501 -3.29442,4.68028 0,2.99666 -2.02971,4.48853 -4.77856,3.51232 z"
       id="path850" />
    <path
       style="fill:#961a21;stroke-width:23.6416;stroke-linecap:round;stroke-dasharray:23.6416, 47.2833"
       d="m 86.634712,166.11382 c -1.265599,-1.55253 -1.265599,-2.33943 0,-3.89196 2.338459,-2.86861 42.261458,-2.86861 44.599918,0 1.2656,1.55253 1.2656,2.33943 0,3.89196 -2.33846,2.86862 -42.261459,2.86862 -44.599918,0 z"
       id="path852" />
    <path
       style="fill:#961a21;stroke-width:23.6416;stroke-linecap:round;stroke-dasharray:23.6416, 47.2833"
       d="m 68.387572,185.37534 c -1.590161,-1.61892 -0.892949,-5.35194 1.148536,-6.1495 3.134838,-1.2247 77.411342,-0.88689 79.345292,0.36085 0.94502,0.60971 1.51077,2.20622 1.25723,3.54777 -0.43795,2.31718 -2.47224,2.4563 -40.67247,2.78142 -22.116313,0.18823 -40.601677,-0.055 -41.078588,-0.54054 z"
       id="path854" />
    <path
       style="fill:#961a21;stroke-width:23.6416;stroke-linecap:round;stroke-dasharray:23.6416, 47.2833"
       d="m 68.808215,203.75268 c -0.865081,-1.06121 -1.240006,-2.8126 -0.833165,-3.89197 1.115791,-2.96028 80.80344,-2.96028 81.91923,0 0.40685,1.07937 0.0319,2.83076 -0.83316,3.89197 -2.35221,2.88547 -77.900697,2.88547 -80.252905,0 z"
       id="path856" />
  </g>
</svg>
